# xmcd
#
# Track frame offsets: 
#        150
#        29190
#        57936
#        87654
#        96444
#        116682
#        134875
#        191321
#
# Disc length: 4276 seconds
#
# Revision: 0
# Processed by: cddbd v1.5.2PL0 Copyright (c) Steve Scherf et al.
# Submitted via: ExactAudioCopy v1.0b1
#
DISCID=7b10b208
DTITLE=Eric Clapton and Friends  - New York, NY - Gunfight at the Apol
DTITLE=lo - 1993-06-15  FLAC
DYEAR=1900
DGENRE=
TTITLE0=Rock Me Baby
TTITLE1=Sweet Little Angel \\ I'm Tore Down
TTITLE2=Let the Good Times Roll
TTITLE3=Let the Good Times Roll Reprise
TTITLE4=Why Does Love Got to Be So Sad (With Buckwheat Zydeco 1988)
TTITLE5=Willpower (with Jack Bruce February 15\\16 1987)
TTITLE6=Instrumental Jam #1 (Derek and Dominos Rehearsals 1970)
TTITLE7=Instrumental Jam #2 (Derek and Dominos Rehearsals 1970)
EXTD=
EXTT0=
EXTT1=
EXTT2=
EXTT3=
EXTT4=
EXTT5=
EXTT6=
EXTT7=
PLAYORDER=
